<svg xmlns="http://www.w3.org/2000/svg" width="45" height="34" viewBox="0 0 45 34">
  <metadata><?xpacket begin="﻿" id="W5M0MpCehiHzreSzNTczkc9d"?>
<x:xmpmeta xmlns:x="adobe:ns:meta/" x:xmptk="Adobe XMP Core 5.6-c138 79.159824, 2016/09/14-01:09:01        ">
   <rdf:RDF xmlns:rdf="http://www.w3.org/1999/02/22-rdf-syntax-ns#">
      <rdf:Description rdf:about=""/>
   </rdf:RDF>
</x:xmpmeta>
                                                                                                    
                                                                                                    
                                                                                                    
                                                                                                    
                                                                                                    
                                                                                                    
                                                                                                    
                                                                                                    
                                                                                                    
                                                                                                    
                                                                                                    
                                                                                                    
                                                                                                    
                                                                                                    
                                                                                                    
                                                                                                    
                                                                                                    
                                                                                                    
                                                                                                    
                                                                                                    
                           
<?xpacket end="w"?></metadata>
<defs>
    <style>
      .cls-1 {
        fill: #edb200;
        stroke: #6d5202;
        stroke-linejoin: round;
        stroke-width: 2px;
        fill-rule: evenodd;
      }
    </style>
  </defs>
  <path id="Shop_E" class="cls-1" d="M858.89,781.689c-0.52-3.172-1.309-6.3-1.841-9.47-0.186-1.1-.683-1.208-1.6-1.2-6.148.03-12.3,0.016-18.446,0.016-4.5,0-8.993.043-13.489-.032a1.331,1.331,0,0,0-1.621,1.331c-0.556,3.09-1.3,6.149-1.784,9.248a29.153,29.153,0,0,0-.039,4.467l2.15,0.1V799h21.549l8.767-.041h4.25v-12.8l2.139-.139A27.683,27.683,0,0,0,858.89,781.689Zm-17.6,13.074H826.517v-8.574h14.777v8.574Zm11.455,0.069h-5.537V786.3h5.537v8.535Z" transform="translate(-817 -768)"/>
</svg>
