<svg xmlns="http://www.w3.org/2000/svg" width="29" height="28.97" viewBox="0 0 29 28.97">
  <metadata><?xpacket begin="﻿" id="W5M0MpCehiHzreSzNTczkc9d"?>
<x:xmpmeta xmlns:x="adobe:ns:meta/" x:xmptk="Adobe XMP Core 5.6-c138 79.159824, 2016/09/14-01:09:01        ">
   <rdf:RDF xmlns:rdf="http://www.w3.org/1999/02/22-rdf-syntax-ns#">
      <rdf:Description rdf:about=""/>
   </rdf:RDF>
</x:xmpmeta>
                                                                                                    
                                                                                                    
                                                                                                    
                                                                                                    
                                                                                                    
                                                                                                    
                                                                                                    
                                                                                                    
                                                                                                    
                                                                                                    
                                                                                                    
                                                                                                    
                                                                                                    
                                                                                                    
                                                                                                    
                                                                                                    
                                                                                                    
                                                                                                    
                                                                                                    
                                                                                                    
                           
<?xpacket end="w"?></metadata>
<defs>
    <style>
      .cls-1 {
        fill: #333;
        fill-rule: evenodd;
      }
    </style>
  </defs>
  <path id="icon_タクシー" class="cls-1" d="M450.094,2745.21l-1.767-5.36a4.4,4.4,0,0,0-4.532-3.31H431.2a4.4,4.4,0,0,0-4.531,3.3l-1.772,5.38a3.337,3.337,0,0,0-1.9,3v4.24a3.343,3.343,0,0,0,3.33,3.34h0.953v1.64a1.57,1.57,0,0,0,1.574,1.57h1.319a1.571,1.571,0,0,0,1.576-1.57v-1.64h11.492v1.64a1.571,1.571,0,0,0,1.576,1.57h1.319a1.571,1.571,0,0,0,1.575-1.57v-1.64h0.951a3.343,3.343,0,0,0,3.331-3.34v-4.24A3.351,3.351,0,0,0,450.094,2745.21Zm-15.167,7.08v-2.66h5.143v2.66h-5.143Zm-4.2-1.91a1.91,1.91,0,1,1-1.909-1.91A1.913,1.913,0,0,1,430.73,2750.38Zm-1.475-9.91,0.026-.12a1.871,1.871,0,0,1,1.919-1.15h12.6a1.873,1.873,0,0,1,1.92,1.15l1.548,4.54H427.735Zm16.921,8a1.91,1.91,0,1,1-1.91,1.91A1.906,1.906,0,0,1,446.176,2748.47Zm-16.57-13.11h1.185v-4.41h1.585v-0.93h-4.355v0.93h1.585v4.41Zm4.67-.95h2.157l0.358,0.95h1.236l-2.216-5.34h-0.929l-2.207,5.34h1.235Zm0.333-.88,0.768-1.94,0.74,1.94h-1.508Zm5.88,1.83,1.168-1.87,1.176,1.87h1.355l-1.892-2.74,1.764-2.6h-1.337l-1.066,1.72-1.057-1.72h-1.346l1.764,2.6-1.883,2.74h1.354Zm5.3-5.34h1.186v5.34H445.79v-5.34Z" transform="translate(-423 -2730.03)"/>
</svg>
