<svg xmlns="http://www.w3.org/2000/svg" width="20.094" height="26.9" viewBox="0 0 20.094 26.9">
  <metadata><?xpacket begin="﻿" id="W5M0MpCehiHzreSzNTczkc9d"?>
<x:xmpmeta xmlns:x="adobe:ns:meta/" x:xmptk="Adobe XMP Core 5.6-c138 79.159824, 2016/09/14-01:09:01        ">
   <rdf:RDF xmlns:rdf="http://www.w3.org/1999/02/22-rdf-syntax-ns#">
      <rdf:Description rdf:about=""/>
   </rdf:RDF>
</x:xmpmeta>
                                                                                                    
                                                                                                    
                                                                                                    
                                                                                                    
                                                                                                    
                                                                                                    
                                                                                                    
                                                                                                    
                                                                                                    
                                                                                                    
                                                                                                    
                                                                                                    
                                                                                                    
                                                                                                    
                                                                                                    
                                                                                                    
                                                                                                    
                                                                                                    
                                                                                                    
                                                                                                    
                           
<?xpacket end="w"?></metadata>
<defs>
    <style>
      .cls-1 {
        fill: #333;
        fill-rule: evenodd;
      }
    </style>
  </defs>
  <path id="icon_電車" class="cls-1" d="M437.916,2228.41c-7.791,0-10.039,2.82-10.039,4.98v13.13a3.438,3.438,0,0,0,3.438,3.44h13.2a3.439,3.439,0,0,0,3.438-3.44v-13.13C447.955,2231.23,445.705,2228.41,437.916,2228.41Zm-3.639,3.09h7.276a0.875,0.875,0,1,1,0,1.75h-7.276A0.875,0.875,0,1,1,434.277,2231.5Zm2.718,8.9H430.3v-4.32H437v4.32h0Zm8.535,0h-6.694v-4.32h6.694v4.32h0Zm-3.99,10.61,0.668,0.98h-8.585l0.668-.98h-2.035l-3.369,4.31h2.482l1.536-2.27h10.022l1.534,2.27h2.482l-3.368-4.31H441.54Z" transform="translate(-427.875 -2228.41)"/>
</svg>
