<svg xmlns="http://www.w3.org/2000/svg" viewBox="0 0 40 40"><defs><style>.cls-1{opacity:0.6;}.cls-2{fill:none;opacity:0.2;}.cls-3{fill:#fff;}</style></defs><title>logo_youtube</title><g id="logo_youtube_2" data-name="logo_youtube2"><g id="t"><g class="cls-1"><circle class="cls-2" cx="20" cy="20" r="20"/><path class="cls-3" d="M33.69,13.12a3.58,3.58,0,0,0-2.53-2.52C28.93,10,20,10,20,10s-8.93,0-11.16.6a3.58,3.58,0,0,0-2.53,2.52A37,37,0,0,0,5.71,20a37,37,0,0,0,.6,6.88A3.58,3.58,0,0,0,8.84,29.4C11.07,30,20,30,20,30s8.93,0,11.16-.6a3.58,3.58,0,0,0,2.53-2.52,37,37,0,0,0,.6-6.88A37,37,0,0,0,33.69,13.12ZM17.14,24.29V15.71L24.57,20Z"/></g></g></g></svg>