<svg xmlns="http://www.w3.org/2000/svg" viewBox="0 0 61.62 30"><defs><style>.cls-1{opacity:0.6;}.cls-2{fill:#fff;}</style></defs><title>logo_foot</title><g id="logo_foot_2" data-name="logo_foot2"><g id="t"><g id="logo_foot_2-2" data-name="logo_foot2" class="cls-1"><g id="logo_foot_1-2" data-name="logo_foot1-2"><g id="Layer_2" data-name="Layer 2"><g id="Nav"><g id="Logo"><path class="cls-2" d="M10.05.84v.93a.49.49,0,0,1-.43.49c-.91.09-1.38.17-1.57.44A5.26,5.26,0,0,0,7.77,5V17.27c0,4.5-.62,6.81-2.43,8.85a40.24,40.24,0,0,1-4,3.8.49.49,0,0,1-.66-.12L.08,29a.5.5,0,0,1,.11-.66,11.41,11.41,0,0,0,4.12-6,22.35,22.35,0,0,0,.26-4.83V4.94A4.81,4.81,0,0,0,4.3,2.67c-.24-.3-.71-.35-1.67-.45a.47.47,0,0,1-.44-.48V.84A.48.48,0,0,1,2.67.35H9.58A.49.49,0,0,1,10.05.84ZM27.47.35H25.62a.49.49,0,0,0-.49.49V12.47L17.12.58A.48.48,0,0,0,16.7.37H14.23a.49.49,0,0,0-.48.49h0V16.09a.48.48,0,0,0,.48.49h1.85a.49.49,0,0,0,.5-.49V4.49l8,11.89a.47.47,0,0,0,.39.21h2.5a.49.49,0,0,0,.49-.49h0V.86a.48.48,0,0,0-.49-.48h0ZM44.3.35H30.88a.49.49,0,0,0-.49.49V2.32a.49.49,0,0,0,.49.49h5.3v13.3a.49.49,0,0,0,.48.49h1.86a.49.49,0,0,0,.49-.49h0V2.8h5.3a.5.5,0,0,0,.49-.48h0V.84a.49.49,0,0,0-.49-.49h0ZM61.62,8.49a10.22,10.22,0,0,1-.54,3.38,7.49,7.49,0,0,1-1.63,2.72,7.69,7.69,0,0,1-2.62,1.77,10.12,10.12,0,0,1-7,0,7.36,7.36,0,0,1-2.63-1.77,7.58,7.58,0,0,1-1.61-2.7A10.07,10.07,0,0,1,45,8.5a10.25,10.25,0,0,1,.55-3.39,7.47,7.47,0,0,1,1.62-2.7A7.25,7.25,0,0,1,49.8.63a10.12,10.12,0,0,1,7,0A7.64,7.64,0,0,1,59.45,2.4a7.46,7.46,0,0,1,1.63,2.7h0A10.24,10.24,0,0,1,61.62,8.49ZM58.36,5.91A5.75,5.75,0,0,0,57.19,4a5.12,5.12,0,0,0-1.73-1.18,5.84,5.84,0,0,0-4.31,0A5,5,0,0,0,49.42,4a5.1,5.1,0,0,0-1.16,1.9,7.39,7.39,0,0,0-.43,2.6,7.36,7.36,0,0,0,.41,2.59A5.38,5.38,0,0,0,49.4,13a5.13,5.13,0,0,0,1.75,1.19,5.84,5.84,0,0,0,4.31,0A5.12,5.12,0,0,0,57.19,13a5.54,5.54,0,0,0,1.17-1.91,7.4,7.4,0,0,0,.44-2.6A7.39,7.39,0,0,0,58.36,5.91Z"/><path class="cls-2" d="M38.11,20.84c-8.26,0-15.59,1.29-20.18,3.25H58.29C53.7,22.13,46.37,20.84,38.11,20.84Z"/></g></g></g></g></g></g></g></svg>